<svg version="1.1" id="Layer_1" xmlns="http://www.w3.org/2000/svg" x="0" y="0" viewBox="0 0 256 256" style="enable-background:new 0 0 256 256" xml:space="preserve"><style>.st1{fill:#f85252}.st8{fill:#491352}</style><path id="XMLID_1182_" d="M195 56.083H61a5 5 0 0 0-5 5v134a5 5 0 0 0 5 5h134a5 5 0 0 0 5-5v-134a5 5 0 0 0-5-5z" style="fill:#fff"/><path d="M185.33 75.753v104.66c0 2.76-2.24 5-5 5H75.67c-2.76 0-5-2.24-5-5V75.753c0-2.76 2.24-5 5-5h104.66c2.76 0 5 2.24 5 5z" style="fill:#1c868e"/><circle id="XMLID_601_" class="st1" cx="128" cy="13.583" r="8"/><circle id="XMLID_600_" class="st1" cx="92.667" cy="242.417" r="8"/><circle id="XMLID_599_" class="st1" cx="29.5" cy="163.417" r="8"/><circle id="XMLID_598_" class="st1" cx="226" cy="92.75" r="8"/><path d="M185.33 75.753v104.66c0 2.76-2.24 5-5 5H96.67c-2.76 0-5-2.24-5-5V75.753c0-2.76 2.24-5 5-5h83.66c2.76 0 5 2.24 5 5z" style="fill:#40c4df"/><path class="st8" d="M248 126.083h-46V94.75h14.202c.929 4.559 4.969 8 9.798 8 5.514 0 10-4.486 10-10s-4.486-10-10-10c-4.829 0-8.869 3.441-9.798 8H202V61.083c0-3.86-3.14-7-7-7h-29.667v-22a2 2 0 0 0-4 0v22H130V23.382c4.559-.929 8-4.969 8-9.798 0-5.514-4.486-10-10-10s-10 4.486-10 10c0 4.829 3.441 8.869 8 9.798v30.702H94.667v-32.5c0-2.642-4-2.646-4 0v32.5H61c-3.86 0-7 3.14-7 7V90.75H19c-2.642 0-2.646 4 0 4h35v31.333H8c-2.642 0-2.646 4 0 4h46v31.333H39.298c-.929-4.559-4.969-8-9.798-8-5.514 0-10 4.486-10 10s4.486 10 10 10c4.829 0 8.869-3.441 9.798-8H54v29.667c0 3.86 3.14 7 7 7h29.667v30.535c-4.559.929-8 4.969-8 9.798 0 5.514 4.486 10 10 10s10-4.486 10-10c0-4.829-3.441-8.869-8-9.798v-30.535H126v22a2 2 0 0 0 4 0v-22h31.333v46c0 2.642 4 2.646 4 0v-46H195c3.86 0 7-3.14 7-7v-29.667h28c2.642 0 2.646-4 0-4h-28v-31.333h46c2.642 0 2.646-4 0-4zM226 86.75c3.309 0 6 2.691 6 6s-2.691 6-6 6-6-2.691-6-6 2.691-6 6-6zM29.5 169.417c-3.309 0-6-2.691-6-6s2.691-6 6-6 6 2.691 6 6-2.691 6-6 6zM122 13.583c0-3.309 2.691-6 6-6s6 2.691 6 6-2.691 6-6 6-6-2.691-6-6zM98.667 242.417c0 3.309-2.691 6-6 6s-6-2.691-6-6 2.691-6 6-6 6 2.691 6 6zM198 195.083c0 1.654-1.346 3-3 3H61c-1.654 0-3-1.346-3-3v-134c0-1.654 1.346-3 3-3h134c1.654 0 3 1.346 3 3v134z"/><path class="st8" d="M180.333 68.75H75.667c-3.86 0-7 3.14-7 7v104.667c0 3.86 3.14 7 7 7h104.667c3.86 0 7-3.14 7-7V75.75c-.001-3.86-3.141-7-7.001-7zm3 111.667c0 1.654-1.346 3-3 3H75.667c-1.654 0-3-1.346-3-3V75.75c0-1.654 1.346-3 3-3h104.667c1.654 0 3 1.346 3 3v104.667z"/></svg>
