<svg xmlns="http://www.w3.org/2000/svg" viewBox="0 0 340 340"><g data-name="Layer 24"><path d="M130.011 198.743a52.381 52.381 0 1 0-103.056-.256 30 30 0 0 1-5.2 22.481 69.294 69.294 0 1 0 113.449-.084 29.318 29.318 0 0 1-5.193-22.141z" style="fill:#f49292"/><path d="M246.471 43.885a370.266 370.266 0 0 0-58.3-29.337 9.06 9.06 0 0 0-12.385 8.433v78.144c-4.955-2.654-13.129-5.638-18.817-.582-8.675 7.712-2.892 20.821 10.41 25.062s25.764 3.924 25.764-8.545V59.139a123.281 123.281 0 0 1 37.176 17.183 18.852 18.852 0 0 1 8.089 15.5v30.355c-4.227-2.66-14.458-7.959-21.2-1.967-8.676 7.711-2.892 20.821 10.41 25.062s25.764 3.924 25.764-8.545V56.315a14.651 14.651 0 0 0-6.911-12.43z" style="fill:#febd67"/><path style="fill:#ce6161" d="M64.471 44.054h28.07v151.809h-28.07z"/><circle cx="78.506" cy="218.543" r="28.259" style="fill:#797996"/><path d="M53.674 269.084h49.665v5.981a8.259 8.259 0 0 1-8.259 8.259H61.933a8.259 8.259 0 0 1-8.259-8.259v-5.981z" style="fill:#ce6161"/><path d="m321.1 278.989-153.328 43.452a13.315 13.315 0 0 1-16.441-9.18l-26.352-92.987a8.539 8.539 0 0 1 5.888-10.543l162.514-46.056a8.538 8.538 0 0 1 10.543 5.887l26.352 92.987a13.315 13.315 0 0 1-9.176 16.44z" style="fill:#fff"/><path d="m315.739 280.507-22.813-79.1a12.3 12.3 0 0 0-15.29-8.4l-118.99 34.96a12.3 12.3 0 0 0-8.363 15.182l22.241 77.938z" style="fill:#bec2db"/><path d="m213.627 309.445-30.807 8.731-20.025-70.659a8.9 8.9 0 0 1 6.137-10.991l22.243-6.3z" style="fill:#fff"/><path transform="rotate(-15.822 217.814 265.477)" style="fill:#fff" d="M201.794 224.297h32.021v82.343h-32.021z"/><path transform="rotate(-15.822 248.622 256.745)" style="fill:#fff" d="M232.602 215.566h32.021v82.343h-32.021z"/><path d="m306.049 283.253-30.807 8.731-22.452-79.223 22.243-6.3a8.9 8.9 0 0 1 10.991 6.137z" style="fill:#fff"/><path d="M187.01 229.3h21.6v42.242a6.424 6.424 0 0 1-6.424 6.424h-8.751a6.424 6.424 0 0 1-6.424-6.424V229.3h-.001z" transform="rotate(-15.822 197.816 253.639)" style="fill:#464659"/><path d="M248.625 211.839h21.6v42.241a6.424 6.424 0 0 1-6.425 6.42h-8.751a6.424 6.424 0 0 1-6.424-6.424v-42.237z" transform="rotate(-15.822 259.432 236.178)" style="fill:#464659"/><path d="M93.4 59.139H63.61a5.608 5.608 0 0 1-5.6-5.949l2.258-36.983A6.611 6.611 0 0 1 66.869 10h23.275a6.611 6.611 0 0 1 6.6 6.207L99 53.19a5.607 5.607 0 0 1-5.6 5.949z" style="fill:#ce6161"/><circle cx="71.704" cy="41.485" r="3.555" style="fill:#464659"/><circle cx="72.223" cy="25.935" r="3.555" style="fill:#464659"/><circle cx="85.308" cy="41.485" r="3.555" style="fill:#464659"/><circle cx="84.79" cy="25.935" r="3.555" style="fill:#464659"/><path d="M307.292 168.608a12.038 12.038 0 0 0-14.865-8.3l-159.278 45.138a23.51 23.51 0 0 1 .3-6.065 55.87 55.87 0 0 0-37.408-63.241V61.46a11.236 11.236 0 0 0 6.309-10.829l-.227-3.708h3.829a3.5 3.5 0 0 0 0-7H101.7l-.654-10.707h3.291a3.5 3.5 0 0 0 0-7h-3.719l-.31-5.088A11.335 11.335 0 0 0 89.007 6.5h-21a11.334 11.334 0 0 0-11.3 10.629l-.307 5.087h-3.72a3.5 3.5 0 0 0 0 7h3.291l-.654 10.707h-4.256a3.5 3.5 0 0 0 0 7h3.829l-.227 3.708a11.236 11.236 0 0 0 6.309 10.829v74.654a55.91 55.91 0 0 0-37.461 62.994 26.649 26.649 0 0 1-4.623 19.849 72.138 72.138 0 0 0-13.072 45.671 72.931 72.931 0 0 0 71.576 68.864c.378 0 .753.008 1.129.008a72.288 72.288 0 0 0 64.079-38.228l5.368 18.943a16.834 16.834 0 0 0 16.152 12.237 16.907 16.907 0 0 0 4.61-.644l153.325-43.452a16.815 16.815 0 0 0 11.589-20.756zM96.041 201.082a24.714 24.714 0 0 1 0 34.922zM63.7 17.556a4.326 4.326 0 0 1 4.306-4.056h21a4.324 4.324 0 0 1 4.31 4.055l2.046 33.5a4.321 4.321 0 0 1-4.311 4.582h-25.09a4.321 4.321 0 0 1-4.312-4.582zM82.007 243.05v-49.014a24.582 24.582 0 0 1 7.034 2.107v44.8a24.582 24.582 0 0 1-7.034 2.107zm7.034 5.448v17.086h-7.034v-15.479a31.5 31.5 0 0 0 7.034-1.605zm-7.034-61.517V62.639h7.034v125.949a31.5 31.5 0 0 0-7.034-1.607zm-14.035 53.961v-44.8a24.549 24.549 0 0 1 7.035-2.108v49.016a24.549 24.549 0 0 1-7.035-2.108zm7.035 9.163v15.479h-7.035V248.5a31.491 31.491 0 0 0 7.035 1.605zm-7.035-61.517V62.639h7.035v124.342a31.491 31.491 0 0 0-7.035 1.607zm31.867 84v2.481a4.765 4.765 0 0 1-4.76 4.76H61.934a4.765 4.765 0 0 1-4.76-4.76v-2.481zM60.972 236a24.714 24.714 0 0 1 0-34.922zm78.552 49.361A65.392 65.392 0 0 1 78.518 326.5c-.339 0-.682 0-1.021-.008a65.909 65.909 0 0 1-64.69-62.231 65.193 65.193 0 0 1 11.809-41.281 33.687 33.687 0 0 0 5.784-25.114 48.914 48.914 0 0 1 30.573-54.318v48.533a31.727 31.727 0 0 0 0 52.924v20.579h-7.3a3.5 3.5 0 0 0-3.5 3.5v5.981a11.773 11.773 0 0 0 11.76 11.76h33.146a11.773 11.773 0 0 0 11.76-11.76v-5.981a3.5 3.5 0 0 0-3.5-3.5h-7.3v-20.579a31.727 31.727 0 0 0 0-52.924v-48.5A48.853 48.853 0 0 1 126.57 198.1a30.69 30.69 0 0 0-.195 9.934 12.051 12.051 0 0 0-4.763 13.191L139.7 285.04a3.35 3.35 0 0 0-.176.325zm76.516 19.759-8.08-28.512-.147-.519-.053.015a3.485 3.485 0 0 0-6.629 1.878l-.053.015 8.229 29.034-24.074 6.823-20.543-72.489 27.44-7.777 27.44-7.776 20.543 72.488zm61.614-17.461-7.968-28.12-.258-.911-.142.04a3.479 3.479 0 0 0-6.45 1.828l-.143.04 8.229 29.035-24.073 6.822-20.549-72.488 54.881-15.553 20.542 72.489zm48.381-16.7a9.746 9.746 0 0 1-5.892 4.658l-11.681 3.31-21.5-75.856a3.5 3.5 0 0 0-4.321-2.413l-61.213 17.348c-.068.019-.126.053-.191.075s-.141.018-.212.038l-30.807 8.73-30.807 8.732a3.5 3.5 0 0 0-2.411 4.326l21.5 75.856-11.681 3.31a9.816 9.816 0 0 1-12.119-6.766l-26.353-92.987a5.043 5.043 0 0 1 3.473-6.222l162.515-46.056a5.077 5.077 0 0 1 1.382-.193 5.044 5.044 0 0 1 4.841 3.668l26.351 92.983a9.75 9.75 0 0 1-.874 7.464z" style="fill:#3c3c4f"/><path d="M214.887 117.591a15 15 0 0 0-4.943 14.63c1.555 7.333 7.921 13.61 16.615 16.383a49.661 49.661 0 0 0 14.5 2.61c3.951 0 7.7-.791 10.617-2.924 2.378-1.738 5.214-5.155 5.214-11.565v-80.41a18.045 18.045 0 0 0-8.566-15.4 371.959 371.959 0 0 0-58.859-29.621 12.56 12.56 0 0 0-17.172 11.688v72.763c-7.067-2.482-13.213-1.755-17.643 2.182a15.01 15.01 0 0 0-4.942 14.632c1.556 7.333 7.922 13.61 16.614 16.381 7.84 2.5 18.564 4.475 25.114-.313 2.379-1.738 5.214-5.156 5.214-11.566V63.827a118.669 118.669 0 0 1 31.68 15.37 15.361 15.361 0 0 1 6.585 12.621v24.518c-7.989-3.518-15.102-3.127-20.028 1.255zm17.431-44.144a126.751 126.751 0 0 0-38.238-17.681 3.5 3.5 0 0 0-4.434 3.373v57.922c0 2.827-.766 4.761-2.344 5.915-3.213 2.347-10.084 2.093-18.857-.7-6.206-1.979-10.874-6.362-11.893-11.166a7.955 7.955 0 0 1 2.745-7.946c4.214-3.746 11.1-.949 14.84 1.051a3.5 3.5 0 0 0 5.152-3.085V22.981a5.56 5.56 0 0 1 7.6-5.178 365.058 365.058 0 0 1 57.733 29.052 11.089 11.089 0 0 1 5.266 9.46v80.41c0 2.826-.767 4.76-2.344 5.914-3.216 2.347-10.088 2.092-18.857-.705-6.207-1.979-10.875-6.362-11.894-11.165a7.955 7.955 0 0 1 2.745-7.946 7.749 7.749 0 0 1 5.317-1.867c4.422 0 9.293 2.67 11.693 4.18a3.5 3.5 0 0 0 5.364-2.962V91.818a22.36 22.36 0 0 0-9.594-18.371z" style="fill:#3c3c4f"/></g></svg>
