<svg xmlns="http://www.w3.org/2000/svg" viewBox="0 0 48 48"><defs><style>.cls-3{fill:#dad7e5}</style></defs><g id="Plate_Number" data-name="Plate Number"><rect x="1" y="10" width="46" height="24" rx="2" style="fill:#374f68"/><path d="M47 12v20H25A22.06 22.06 0 0 1 3 10h42a2 2 0 0 1 2 2z" style="fill:#425b72"/><path class="cls-3" d="M10 14H8a3 3 0 0 0-3 3v4a3 3 0 0 0 3 3h2a3 3 0 0 0 3-3v-4a3 3 0 0 0-3-3zm-2 2h2l-3 4v-3a1 1 0 0 1 1-1zm2 6H8l3-4v3a1 1 0 0 1-1 1zM30 14h-2a3 3 0 0 0-3 3v4a3 3 0 0 0 3 3h2a3 3 0 0 0 3-3v-4a3 3 0 0 0-3-3zm-2 2h2l-3 4v-3a1 1 0 0 1 1-1zm2 6h-2l3-4v3a1 1 0 0 1-1 1zM18 20h3v3a1 1 0 0 0 2 0v-8a1 1 0 0 0-2 0v3h-3a1 1 0 0 1-1-1v-2a1 1 0 0 0-2 0v2a3 3 0 0 0 3 3zM41 18h-4v-2h5a1 1 0 0 0 0-2h-5a2 2 0 0 0-2 2v2a2 2 0 0 0 2 2h4v2h-5a1 1 0 0 0 0 2h5a2 2 0 0 0 2-2v-2a2 2 0 0 0-2-2zM26 28h-4a1 1 0 0 0 0 2h4a1 1 0 0 0 0-2zM17.29 27.29l-.29.3-.29-.3a1 1 0 0 0-1.42 1.42l.3.29-.3.29a1 1 0 0 0 1.42 1.42l.29-.3.29.3a1 1 0 0 0 1.42-1.42l-.3-.29.3-.29a1 1 0 0 0-1.42-1.42zM31.29 27.29l-.29.3-.29-.3a1 1 0 0 0-1.42 1.42l.3.29-.3.29a1 1 0 0 0 1.42 1.42l.29-.3.29.3a1 1 0 0 0 1.42-1.42l-.3-.29.3-.29a1 1 0 0 0-1.42-1.42z"/></g></svg>
